<?xml version="1.0" encoding="iso-8859-1"?>
<!-- Generator: Adobe Illustrator 19.0.0, SVG Export Plug-In . SVG Version: 6.00 Build 0)  -->
<svg xmlns="http://www.w3.org/2000/svg" xmlns:xlink="http://www.w3.org/1999/xlink" version="1.1" id="Capa_1" x="0px" y="0px" viewBox="0 0 398.96 398.96" style="enable-background:new 0 0 398.96 398.96;" xml:space="preserve" width="35px" height="35px">
<g>
	<g>
		<path d="M199.52,170.44h-76c-3.17,0-5.74,2.57-5.74,5.74c0,3.17,2.57,5.74,5.74,5.74h76c3.17,0,5.74-2.57,5.74-5.74    C205.26,173.01,202.69,170.44,199.52,170.44z" fill="#9398a1"/>
	</g>
</g>
<g>
	<g>
		<path d="M275.52,133.76h-152c-3.17,0-5.74,2.57-5.74,5.74s2.57,5.74,5.74,5.74h152c3.17,0,5.74-2.57,5.74-5.74    S278.69,133.76,275.52,133.76z" fill="#9398a1"/>
	</g>
</g>
<g>
	<g>
		<path d="M275.52,206.96h-152c-3.17,0-5.74,2.57-5.74,5.74s2.57,5.74,5.74,5.74h152c3.17,0,5.74-2.57,5.74-5.74    S278.69,206.96,275.52,206.96z" fill="#9398a1"/>
	</g>
</g>
<g>
	<g>
		<path d="M353.44,82.96l-81.2-81.2c-1.048-1.093-2.486-1.726-4-1.76H77.48C59.472,0.044,44.884,14.632,44.84,32.64v334.88    c0.687,17.538,15.089,31.411,32.64,31.44h244c18.008-0.044,32.596-14.632,32.64-32.64V85.88V85.6v-0.4v-0.8v-0.28v-0.24v-0.24    v-0.68H353.44z M272.92,18.44l61.72,61.68h-44.96c-9.247-0.022-16.738-7.513-16.76-16.76V18.44z M342.72,366.44    c-0.044,11.668-9.492,21.116-21.16,21.16h-244c-11.668-0.044-21.116-9.492-21.16-21.16V31.52    c0.044-11.668,9.492-21.116,21.16-21.16h184V63.4c0.044,15.556,12.644,28.156,28.2,28.2h52.96V366.44z" fill="#9398a1"/>
	</g>
</g>
<g>
	<g>
		<path d="M199.52,243.8h-76c-3.17,0-5.74,2.57-5.74,5.74c0,3.17,2.57,5.74,5.74,5.74h76c3.17,0,5.74-2.57,5.74-5.74    C205.26,246.37,202.69,243.8,199.52,243.8z" fill="#9398a1"/>
	</g>
</g>
<g>
	<g>
		<path d="M275.52,280.48h-152c-3.17,0-5.74,2.57-5.74,5.74c0,3.17,2.57,5.74,5.74,5.74h152c3.17,0,5.74-2.57,5.74-5.74    C281.26,283.05,278.69,280.48,275.52,280.48z" fill="#9398a1"/>
	</g>
</g>
<g>
</g>
<g>
</g>
<g>
</g>
<g>
</g>
<g>
</g>
<g>
</g>
<g>
</g>
<g>
</g>
<g>
</g>
<g>
</g>
<g>
</g>
<g>
</g>
<g>
</g>
<g>
</g>
<g>
</g>
</svg>
