<?xml version="1.0" encoding="iso-8859-1"?>
<!--Generator: Adobe Illustrator 19.0.0, SVG Export Plug-In . SVG Version: 6.00 Build 0)-->
<svg xmlns="http://www.w3.org/2000/svg" viewBox="0 0 512.001 512.001" width="512" height="512">
  <g fill="#40c4cf">
    <path d="M256.001 221.868c10.761 0 20.13-4.045 25.6-7.049 5.47 3.004 14.839 7.049 25.6 7.049 15.889 0 33.647-9.028 41.233-20.864.751-1.135 18.5-28.262 18.5-73.003 0-32.939-26.795-59.733-59.733-59.733-9.651 0-18.449 3.541-25.6 7.305-7.151-3.763-15.949-7.305-25.6-7.305-32.939 0-59.733 26.795-59.733 59.733 0 50.56 15.727 70.204 19.149 73.865 7.713 9.711 23.551 20.002 40.584 20.002zm0-136.533c7.612 0 15.394 3.942 21.325 7.381a8.5081 8.5081 0 0 0 8.55 0c5.931-3.439 13.713-7.381 21.325-7.381 23.526 0 42.667 19.14 42.667 42.667 0 39.27-15.488 63.317-15.718 63.659-3.985 6.212-16.026 13.141-26.948 13.141-10.999 0-20.446-6.801-20.506-6.844-1.51-1.126-3.302-1.69-5.094-1.69s-3.584.563-5.094 1.69c-.094.068-9.506 6.844-20.506 6.844-10.871 0-22.221-7.091-27.383-13.756-.171-.222-.461-.546-.657-.751-.145-.154-14.626-16.026-14.626-62.293-.002-23.527 19.138-42.667 42.665-42.667zM274.288 55.596c1.596 2.662 4.42 4.139 7.322 4.139a8.49 8.49 0 0 0 4.386-1.22c4.036-2.423 5.35-7.663 2.918-11.708l-25.6-42.667c-2.424-4.036-7.663-5.35-11.708-2.918-4.036 2.423-5.35 7.663-2.918 11.708l25.6 42.666zM300.929 54.367c.597.196 6.042 1.946 13.244 1.946h.009c10.206 0 19.081-3.482 25.643-10.052 15.616-15.616 8.414-37.956 8.098-38.904a8.5609 8.5609 0 0 0-5.393-5.393c-.606-.196-6.05-1.946-13.261-1.946-10.206 0-19.072 3.473-25.643 10.044-15.616 15.625-8.405 37.956-8.098 38.904a8.5442 8.5442 0 0 0 5.401 5.401zm14.762-32.239c3.345-3.345 7.91-5.043 13.577-5.043 1.203 0 2.338.077 3.345.196.521 4.599.282 11.776-4.855 16.913-3.345 3.345-7.919 5.052-13.577 5.052-1.203 0-2.338-.085-3.345-.196-.521-4.608-.282-11.785 4.855-16.922zM486.401 238.935h-409.6c-14.114 0-25.6 11.486-25.6 25.6v34.133c0 4.71 3.823 8.533 8.533 8.533s8.533-3.823 8.533-8.533v-34.133c0-4.702 3.831-8.533 8.533-8.533h25.6v42.667c0 4.71 3.823 8.533 8.533 8.533s8.533-3.823 8.533-8.533v-42.667h221.867v42.667c0 4.71 3.823 8.533 8.533 8.533s8.533-3.823 8.533-8.533v-42.667h85.333v42.667c0 4.71 3.823 8.533 8.533 8.533 4.71 0 8.533-3.823 8.533-8.533v-42.667h25.6c4.702 0 8.533 3.831 8.533 8.533v59.733h-25.6c-4.71 0-8.533 3.823-8.533 8.533v76.8h-8.533c-4.71 0-8.533 3.823-8.533 8.533 0 4.71 3.823 8.533 8.533 8.533h25.6V486.4c0 4.702-3.831 8.533-8.533 8.533H204.801v-42.667c0-4.71-3.823-8.533-8.533-8.533s-8.533 3.823-8.533 8.533v42.667h-17.067v-42.667c0-4.71-3.823-8.533-8.533-8.533-4.71 0-8.533 3.823-8.533 8.533v42.667h-17.067v-42.667c0-4.71-3.823-8.533-8.533-8.533s-8.533 3.823-8.533 8.533v42.667h-76.8c-4.702 0-8.533-3.831-8.533-8.533v-34.133c0-4.71-3.823-8.533-8.533-8.533-4.71 0-8.533 3.823-8.533 8.533V486.4c0 14.114 11.486 25.6 25.6 25.6h426.667c14.114 0 25.6-11.486 25.6-25.6v-59.733c0-11.085-8.789-17.067-17.067-17.067v-68.267h17.067c8.277 0 17.067-5.982 17.067-17.067v-59.733c-.003-14.112-11.489-25.598-25.603-25.598z"/>
    <path d="M332.801 426.668c4.71 0 8.533-3.823 8.533-8.533 0-4.71-3.823-8.533-8.533-8.533h-93.867v-68.267h119.467v128c0 3.149 1.732 6.042 4.506 7.526 2.765 1.476 6.144 1.314 8.764-.427l20.864-13.909 20.864 13.909a8.5197 8.5197 0 0 0 4.736 1.434 8.544 8.544 0 0 0 4.028-1.007c2.773-1.485 4.506-4.378 4.506-7.526v-128h8.533c4.71 0 8.533-3.823 8.533-8.533s-3.823-8.533-8.533-8.533h-409.6c-14.353 0-25.6 11.247-25.6 25.6v51.2c0 14.114 11.486 25.6 25.6 25.6h307.199zm42.666-85.333H409.6v112.051l-12.331-8.218c-2.867-1.911-6.605-1.911-9.472 0l-12.331 8.218V341.335zm-273.066 0h119.467v68.267H102.401v-68.267zm-85.334 59.733v-51.2c0-4.864 3.669-8.533 8.533-8.533h59.733v68.267H25.601c-4.787 0-8.534-3.747-8.534-8.534z"/>
    <path d="M179.201 358.401c-4.71 0-8.533 3.823-8.533 8.533v17.067c0 4.71 3.823 8.533 8.533 8.533s8.533-3.823 8.533-8.533v-17.067c0-4.71-3.823-8.533-8.533-8.533zM145.067 358.401c-4.71 0-8.533 3.823-8.533 8.533v17.067c0 4.71 3.823 8.533 8.533 8.533 4.71 0 8.533-3.823 8.533-8.533v-17.067c.001-4.71-3.822-8.533-8.533-8.533z"/>
  </g>
</svg>
