<svg xmlns="http://www.w3.org/2000/svg" viewBox="0 0 480 480" width="512" height="512">
	<path d="M475.576 72.84c-2.712-1.352-5.96-1.072-8.376.76l-13.456 10.096c-9.016 6.76-16.84 14.72-23.56 23.6C386.704 44.928 316.512 8 240 8 180.248 8 123.008 31.264 80 72.32V72H64v72H48V72H32v72H16V72H0v96c0 10.24 6.472 18.936 15.512 22.376L2.68 367.456c-1.04 12.512 4.192 27.032 13.336 36.96 6.44 7 14.328 11.056 22.36 11.536.528.112 1.072.168 1.624.168 8.568 0 17.064-4.112 23.928-11.568 2.048-2.224 3.872-4.704 5.504-7.32C113.344 444.896 174.824 472 240 472c66.424 0 129.912-29.064 173.704-78.512 1.448 3.96 3.504 7.712 6.352 10.936 6.496 7.36 15.848 11.576 25.664 11.576h.04c18.88 0 34.24-15.36 34.24-34.24V80c0-3.032-1.712-5.8-4.424-7.16zM61.104 374.656c-.152 1.024-.472 2.096-.736 3.16-1.424 5.768-4.24 11.6-8.208 15.904-2.504 2.72-6.4 5.92-11.104 6.352A7.807 7.807 0 0 0 40 400c-5.208 0-9.512-3.496-12.2-6.416-6.072-6.592-9.84-16.784-9.16-24.888L31.44 192h17.12l12.816 176.784c.152 1.856.016 3.856-.272 5.872zM64 168c0 4.416-3.592 8-8 8H24c-4.408 0-8-3.584-8-8v-8h48v8zm354.864 134.04l-6.4 67.872C371.776 423.856 307.472 456 240 456c-63.176 0-122.624-27.344-163.776-75.168v-.024c.472-2.064.784-4.128.976-6.176.032-.36.072-.712.104-1.072.136-2.04.184-4.064.024-6.024L64.496 190.448c.176-.064.328-.168.504-.232.368-.152.704-.336 1.064-.496.944-.44 1.856-.928 2.728-1.48.376-.24.752-.48 1.112-.744.88-.624 1.704-1.312 2.488-2.048.24-.224.504-.432.736-.664.976-1 1.872-2.072 2.664-3.224.168-.24.296-.504.448-.752.6-.936 1.128-1.912 1.592-2.936.192-.416.352-.84.52-1.264.368-.952.664-1.928.912-2.928.104-.424.224-.84.304-1.28.256-1.44.432-2.896.432-4.4V95.128C120.976 49.88 179.12 24 240 24c73.36 0 140.536 36.424 180.68 97.68l-4.872 8.52C405.472 148.312 400 168.896 400 189.744v21c0 10.688 4.16 20.736 11.712 28.288L423.68 251l-4.816 51.04zM464 381.76c0 10.064-8.184 18.24-18.24 18.24h-.04c-5.224 0-10.208-2.248-13.672-6.168-3.464-3.912-5.072-9.144-4.4-14.568l.528-5.608v-.008l8.904-94.424 2.2-23.224H464v125.76zM464 240h-28.688l-12.288-12.28c-4.528-4.536-7.024-10.56-7.024-16.976v-21c0-18.064 4.736-35.904 13.704-51.6l5.744-10.048 1.512-2.336c.016-.024.016-.048.032-.072 6.896-11.344 15.696-21.2 26.352-29.192L464 96v144z" fill="#40c4cf"/>
	<path d="M293.6 117.112c-4.12-4.576-8.016-8.904-10.448-13.12-2.584-4.472-4.496-10.176-6.504-16.232-4.032-12.096-8.608-25.808-20.624-32.76-11.648-6.744-25.032-4.08-37.984-1.504C211.6 54.792 205.512 56 200 56c-5.512 0-11.6-1.208-18.04-2.496-12.952-2.576-26.328-5.24-37.976 1.504-12.016 6.952-16.592 20.664-20.624 32.768-2.016 6.048-3.92 11.76-6.504 16.224-2.44 4.208-6.328 8.528-10.448 13.112C97.776 126.68 88 137.544 88 152s9.776 25.312 18.4 34.888c4.12 4.584 8.016 8.912 10.448 13.12 2.584 4.472 4.496 10.176 6.504 16.232 4.032 12.096 8.608 25.808 20.624 32.76 11.64 6.736 25.04 4.088 37.984 1.504C188.4 249.208 194.488 248 200 248c5.512 0 11.6 1.208 18.04 2.496 6.864 1.368 13.856 2.76 20.648 2.76 6.008 0 11.856-1.096 17.328-4.256 12.016-6.952 16.592-20.664 20.624-32.768 2.016-6.048 3.92-11.76 6.504-16.224 2.44-4.208 6.328-8.528 10.448-13.112C302.224 177.32 312 166.456 312 152s-9.776-25.312-18.4-34.888zm-11.896 59.08c-4.488 4.992-9.128 10.144-12.4 15.8-3.4 5.88-5.656 12.64-7.832 19.184-3.44 10.312-6.688 20.056-13.464 23.976-6.408 3.72-16.328 1.744-26.832-.352-6.928-1.376-14.088-2.8-21.176-2.8s-14.248 1.424-21.168 2.808c-10.496 2.088-20.416 4.072-26.84.352-6.768-3.92-10.016-13.664-13.456-23.976-2.176-6.536-4.44-13.304-7.832-19.184-3.28-5.656-7.92-10.824-12.408-15.808C110.944 168.024 104 160.312 104 152s6.944-16.032 14.296-24.192c4.488-4.992 9.128-10.144 12.4-15.8 3.4-5.88 5.656-12.64 7.832-19.184 3.44-10.312 6.688-20.056 13.464-23.976 2.624-1.512 5.824-2.088 9.408-2.088 5.2 0 11.208 1.2 17.424 2.44C185.752 70.576 192.912 72 200 72s14.248-1.424 21.168-2.808c10.496-2.088 20.416-4.064 26.84-.352 6.768 3.92 10.016 13.664 13.456 23.976 2.176 6.536 4.44 13.304 7.832 19.184 3.28 5.656 7.92 10.824 12.408 15.808C289.056 135.976 296 143.688 296 152s-6.944 16.032-14.296 24.192z" fill="#40c4cf"/>
	<path d="M200 104c-26.472 0-48 21.528-48 48s21.528 48 48 48 48-21.528 48-48-21.528-48-48-48zm0 80c-17.648 0-32-14.352-32-32s14.352-32 32-32 32 14.352 32 32-14.352 32-32 32zM312 272H168c-3.28 0-6.224 2-7.432 5.048-1.208 3.04-.44 6.512 1.944 8.768l2.312 2.184H96c-3.28 0-6.224 2-7.432 5.048-1.208 3.04-.44 6.512 1.944 8.768l144 136C236.024 439.248 238 440 240 440c1.072 0 2.152-.208 3.168-.656 2.936-1.256 4.832-4.152 4.832-7.344v-65.448l58.504 55.256A7.9846 7.9846 0 0 0 312 424c1.072 0 2.152-.208 3.168-.656 2.936-1.256 4.832-4.152 4.832-7.344V280c0-4.424-3.584-8-8-8zm-80 141.44L116.12 304h65.64L232 351.448v61.992zm72-16L188.12 288H304v109.44zM360 88c-13.232 0-24 10.768-24 24v144c0 13.232 10.768 24 24 24s24-10.768 24-24V112c0-13.232-10.768-24-24-24zm8 168c0 4.416-3.592 8-8 8-4.408 0-8-3.584-8-8v-36.688l16 16V256zm0-43.312l-16-16v-41.376l16 16v41.376zm0-64l-16-16V112c0-4.416 3.592-8 8-8 4.408 0 8 3.584 8 8v36.688z" fill="#40c4cf"/>
</svg>
