<svg xmlns="http://www.w3.org/2000/svg" viewBox="0 0 396.374 396.374" width="25" height="25">
  <g fill="#626977">
    <path d="M287.974 61.707v-.08zM342.294 7.627h-240c-29.849.044-54.036 24.231-54.08 54.08v219.2c-29.691 3.242-51.132 29.94-47.89 59.631 3.004 27.512 26.294 48.316 53.97 48.209h195.52c29.849-.044 54.036-24.231 54.08-54.08v-218.88h38.4c29.868 0 54.08-24.212 54.08-54.08s-24.213-54.08-54.08-54.08zm-130.8 365.12h-157.2c-21.053 0-38.12-17.067-38.12-38.12s17.067-38.12 38.12-38.12h157.2c-21.004 21.073-21.004 55.166 0 76.24zm76.48-311.043v272.963c0 21.031-17.049 38.08-38.08 38.08s-38.08-17.049-38.08-38.08 17.049-38.08 38.08-38.08c4.418 0 8-3.582 8-8s-3.582-8-8-8H64.534V61.707c.043-20.889 16.872-37.861 37.76-38.08h201.36a53.9153 53.9153 0 0 0-15.68 38.077zm46.32 38.083h-30.32v-13.12h30.32v13.12zm16-.8V78.667c0-4.418-3.582-8-8-8h-38.32v-8.96c.056-21.031 17.151-38.034 38.182-37.978s38.034 17.151 37.978 38.182c-.048 17.818-12.445 33.22-29.84 37.076z"/>
  </g>
  <path d="M233.414 86.987h-117.04c-4.418 0-8 3.582-8 8s3.582 8 8 8h117.04c4.418 0 8-3.582 8-8s-3.582-8-8-8zM233.414 144.107h-117.04c-4.418 0-8 3.582-8 8s3.582 8 8 8h117.04c4.418 0 8-3.582 8-8s-3.582-8-8-8zM233.414 201.227h-117.04c-4.418 0-8 3.582-8 8s3.582 8 8 8h117.04c4.418 0 8-3.582 8-8s-3.582-8-8-8z" fill="#626977"/>
</svg>
