<svg xmlns="http://www.w3.org/2000/svg" viewBox="0 0 511.999 511.999" width="25" height="25">
  <path d="M498.776 140.409L371.523 13.156c-17.541-17.542-46.084-17.541-63.627.001-17.538 17.543-17.537 46.085.001 63.624l10.604 10.604-79.528 79.531c-45.45-14.611-95.8-8.904-136.548 15.88-24.432 14.859-26.944 49.326-6.959 69.311l72.043 72.043L4.484 486.373c-5.871 5.842-5.895 15.338-.052 21.208 2.93 2.945 6.781 4.418 10.631 4.418 3.825 0 7.652-1.455 10.579-4.366l163.079-162.276 71.107 71.107c20.029 20.031 54.468 17.443 69.31-6.957 24.785-40.75 30.491-91.1 15.88-136.549l79.531-79.528 10.605 10.604c8.771 8.77 20.289 13.154 31.811 13.154 11.519 0 23.043-4.386 31.814-13.154 17.539-17.541 17.539-46.084-.003-63.625zM303.512 393.921c-4.608 7.575-16.049 7.763-22.476 1.336l-81.655-81.655c-.002-.001-.003-.003-.004-.005-.002-.002-.004-.003-.005-.005l-82.695-82.695c-6.477-6.477-6.186-17.901 1.336-22.476 21.201-12.894 45.59-19.473 70.113-19.473 15.694 0 31.443 2.694 46.446 8.151l80.26 80.26c13.986 38.447 9.827 81.792-11.32 116.562zm24.211-146.086L264.1 184.209l75.611-75.615 63.628 63.628-75.616 75.613zm149.847-65.01c-5.849 5.847-15.363 5.849-21.21.001L329.106 55.573c-5.847-5.847-5.846-15.362 0-21.208 5.848-5.847 15.361-5.847 21.208 0l127.253 127.253c5.849 5.847 5.849 15.36.003 21.207z" fill="#626977"/>
</svg>
