<svg xmlns="http://www.w3.org/2000/svg" viewBox="0 0 191.667 191.667" width="51" height="51">
  <path d="M95.833 0C42.991 0 0 42.99 0 95.833s42.991 95.834 95.833 95.834 95.833-42.991 95.833-95.834S148.676 0 95.833 0zm55.029 79.646l-60.207 60.207c-2.56 2.56-5.963 3.969-9.583 3.969s-7.023-1.409-9.583-3.969l-30.685-30.685c-2.56-2.56-3.97-5.963-3.97-9.583 0-3.621 1.41-7.024 3.97-9.584 2.559-2.56 5.962-3.97 9.583-3.97 3.62 0 7.024 1.41 9.583 3.971l21.101 21.1 50.623-50.623c2.56-2.56 5.963-3.969 9.583-3.969s7.023 1.409 9.583 3.969c5.286 5.286 5.286 13.883.002 19.167z" fill="#40c4cf"/>
</svg>
