<?xml version="1.0" encoding="iso-8859-1"?>
<!--Generator: Adobe Illustrator 19.0.0, SVG Export Plug-In . SVG Version: 6.00 Build 0)-->
<svg xmlns="http://www.w3.org/2000/svg" viewBox="0 0 446.766 446.766" width="18" height="18">
  <g fill="#40c4cf">
    <path d="M250.472 97.769c-5.771 0-10.449 4.678-10.449 10.449v4.18l-119.641 22.988H91.647c-5.747 0-8.359 7.314-8.359 13.061v55.38c0 5.747 2.612 9.927 8.359 9.927h28.735l15.151 3.657v27.69c-.289 5.475 3.916 10.147 9.39 10.435.179.009.357.014.536.014h57.469c5.861.007 10.692-4.595 10.971-10.449V234.13l26.122 5.747v4.18c0 5.771 4.678 10.449 10.449 10.449s10.449-4.678 10.449-10.449V108.218c.002-5.771-4.676-10.449-10.447-10.449zm-141.061 95.086h-5.224v-36.571h5.224v36.571zm83.591 41.796h-36.571v-12.539l36.571 7.837v4.702zm47.021-16.196l-109.714-22.988v-38.661l109.714-22.988v84.637z"/>
    <path d="M180.464 30.373C97.653 30.085 30.288 96.983 30 179.794c-.288 82.811 66.61 150.175 149.42 150.464 82.811.288 150.175-66.61 150.464-149.42.001-.348.001-.695 0-1.043-.287-82.405-67.017-149.135-149.42-149.422zm128.522 149.421c-.284 70.948-57.576 128.473-128.522 129.045-71.269.289-129.278-57.252-129.566-128.521S108.15 51.04 179.419 50.751c71.269-.289 129.278 57.252 129.566 128.521.001.174.001.348.001.522z"/>
    <path d="M435.386 379.337c-.162-.165-.325-.328-.49-.49l-72.62-73.143c-4.414-3.585-10.737-3.585-15.151 0l-13.061 13.584-20.898-20.898c65.826-73.905 59.276-187.179-14.629-253.005S111.358-13.891 45.532 60.014s-59.276 187.179 14.629 253.004c67.938 60.511 170.438 60.511 238.376 0l20.898 20.898-13.584 13.584c-4.04 3.706-4.31 9.986-.603 14.025.192.21.394.411.603.603l73.143 73.143a39.7067 39.7067 0 0 0 28.212 11.494c10.503.036 20.542-4.321 27.69-12.016 15.437-15.166 15.657-39.975.49-55.412zm-254.922-41.764c-87.139.289-158.013-70.117-158.301-157.256C21.874 93.178 92.28 22.304 179.419 22.016c87.139-.289 158.013 70.117 158.301 157.256.001.174.001.348.001.522-.285 86.817-70.441 157.207-157.257 157.779zm239.85 82.501l-.046.046c-7.332 7.358-19.241 7.378-26.599.046l-.046-.046-65.306-65.306 26.645-26.645 65.306 65.306c7.357 7.333 7.378 19.241.046 26.599z"/>
  </g>
</svg>
