<svg xmlns="http://www.w3.org/2000/svg" viewBox="0 0 612 612" width="35" height="35"><path d="M566.162 82.872h-59.953v-33.3c0-14.046-11.854-25.9-25.9-25.9h-37c-14.046 0-25.9 11.854-25.9 25.9v33.3H197.605v-33.3c0-14.046-11.854-25.9-25.9-25.9h-37c-14.046 0-25.9 11.854-25.9 25.9v33.3H45.907C20.761 82.872 0 103.564 0 128.779V542.42c0 25.146 20.692 45.907 45.907 45.907h520.186c25.146 0 45.907-20.692 45.907-45.907V128.779c0-25.215-20.692-45.907-45.838-45.907zM444.817 51.765h34.053v81.399h-34.053V51.765zm-308.604 0h34.053v81.399h-34.053V51.765zm-89.552 58.514h62.899v24.392c0 14.046 11.854 25.9 25.9 25.9h37c14.046 0 25.9-11.854 25.9-25.9v-24.392h219.05v24.392c0 14.046 11.854 25.9 25.9 25.9h37c14.046 0 25.9-11.854 25.9-25.9v-24.392h60.707c10.346 0 18.5 8.154 18.5 18.5v73.999H28.161v-73.999c0-10.415 8.153-18.5 18.5-18.5zM566.162 560.92H46.661c-10.346 0-18.5-8.154-18.5-18.5V230.117h556.501V542.42c-.001 10.346-8.154 18.5-18.5 18.5zM148.82 304.869c0 7.4-5.893 13.292-13.292 13.292h-44.4c-7.4 0-13.292-5.893-13.292-13.292 0-7.4 5.893-13.292 13.292-13.292h44.399c7.332-.754 13.293 5.893 13.293 13.292zm127.991 0c0 7.4-5.893 13.292-13.292 13.292H219.12c-7.4 0-13.292-5.893-13.292-13.292 0-7.4 5.893-13.292 13.292-13.292h44.399c6.646-.754 13.292 5.893 13.292 13.292zm127.306 0c0 7.4-5.892 13.292-13.292 13.292h-44.399c-7.4 0-13.292-5.893-13.292-13.292 0-7.4 5.893-13.292 13.292-13.292h44.399c7.331-.754 13.292 5.893 13.292 13.292zm127.991 0c0 7.4-5.893 13.292-13.292 13.292h-44.4c-7.4 0-13.292-5.893-13.292-13.292 0-7.4 5.893-13.292 13.292-13.292h44.4c7.4-.754 13.292 5.893 13.292 13.292zM148.82 395.861c0 7.4-5.893 13.292-13.292 13.292h-44.4c-7.4 0-13.292-5.893-13.292-13.292 0-7.4 5.893-13.292 13.292-13.292h44.399a13.26 13.26 0 0 1 13.293 13.292zm127.991 0c0 7.4-5.893 13.292-13.292 13.292H219.12c-7.4 0-13.292-5.893-13.292-13.292 0-7.4 5.893-13.292 13.292-13.292h44.399c6.646 0 13.292 5.892 13.292 13.292zm127.306 0c0 7.4-5.892 13.292-13.292 13.292h-44.399c-7.4 0-13.292-5.893-13.292-13.292 0-7.4 5.893-13.292 13.292-13.292h44.399a13.26 13.26 0 0 1 13.292 13.292zm127.991 0c0 7.4-5.893 13.292-13.292 13.292h-44.4c-7.4 0-13.292-5.893-13.292-13.292 0-7.4 5.893-13.292 13.292-13.292h44.4c7.4 0 13.292 5.892 13.292 13.292zM148.82 487.675c0 7.4-5.893 13.292-13.292 13.292h-44.4c-7.4 0-13.292-5.892-13.292-13.292 0-7.4 5.893-13.292 13.292-13.292h44.399c7.332-.823 13.293 5.138 13.293 13.292zm127.991 0c0 7.4-5.893 13.292-13.292 13.292H219.12c-7.4 0-13.292-5.892-13.292-13.292 0-7.4 5.893-13.292 13.292-13.292h44.399c6.646-.823 13.292 5.138 13.292 13.292zm127.306 0c0 7.4-5.892 13.292-13.292 13.292h-44.399c-7.4 0-13.292-5.892-13.292-13.292 0-7.4 5.893-13.292 13.292-13.292h44.399c7.331-.823 13.292 5.138 13.292 13.292zm127.991 0c0 7.4-5.893 13.292-13.292 13.292h-44.4c-7.4 0-13.292-5.892-13.292-13.292 0-7.4 5.893-13.292 13.292-13.292h44.4c7.4-.823 13.292 5.138 13.292 13.292z" fill="#9398a1"/></svg>