<?xml version="1.0" encoding="iso-8859-1"?>
<!--Generator: Adobe Illustrator 19.0.0, SVG Export Plug-In . SVG Version: 6.00 Build 0)-->
<svg xmlns="http://www.w3.org/2000/svg" viewBox="0 0 60 60" width="20" height="20">
    <path d="M44.18 20l9.668-15.47c.193-.309.203-.697.027-1.015A1.0018 1.0018 0 0 0 53 3H8V1c0-.553-.447-1-1-1S6 .447 6 1v58c0 .553.447 1 1 1s1-.447 1-1V37h45a1.0007 1.0007 0 0 0 .848-1.531L44.18 20zM8 35V5h43.195l-9.043 14.47c-.203.324-.203.736 0 1.061L51.195 35H8z" fill="#9398a1"/>
</svg>
