<svg xmlns="http://www.w3.org/2000/svg" viewBox="0 0 398.96 398.96" width="35" height="35"><path d="M199.52 170.44h-76a5.74 5.74 0 0 0 0 11.48h76a5.74 5.74 0 0 0 0-11.48zM275.52 133.76h-152a5.74 5.74 0 0 0 0 11.48h152a5.74 5.74 0 0 0 0-11.48zM275.52 206.96h-152a5.74 5.74 0 0 0 0 11.48h152a5.74 5.74 0 0 0 0-11.48z" fill="#9398a1"/><path d="M353.44 82.96l-81.2-81.2a5.719 5.719 0 0 0-4-1.76H77.48C59.472.044 44.884 14.632 44.84 32.64v334.88c.687 17.538 15.089 31.411 32.64 31.44h244c18.008-.044 32.596-14.632 32.64-32.64V82.96h-.68zm-80.52-64.52l61.72 61.68h-44.96c-9.247-.022-16.738-7.513-16.76-16.76V18.44zm69.8 348c-.044 11.668-9.492 21.116-21.16 21.16h-244c-11.668-.044-21.116-9.492-21.16-21.16V31.52c.044-11.668 9.492-21.116 21.16-21.16h184V63.4c.044 15.556 12.644 28.156 28.2 28.2h52.96v274.84z" fill="#9398a1"/><path d="M199.52 243.8h-76a5.74 5.74 0 0 0 0 11.48h76a5.74 5.74 0 0 0 0-11.48zM275.52 280.48h-152a5.74 5.74 0 0 0 0 11.48h152a5.74 5.74 0 0 0 0-11.48z" fill="#2c374a"/></svg>